<svg width="66" height="120" xmlns="http://www.w3.org/2000/svg" xmlns:xlink="http://www.w3.org/1999/xlink">
    <defs>
        <path d="M44 0c6.627 0 12 5.373 12 12v60.782l2.01-2.014a2.49 2.49 0 0 1 3.525 0l.003.002a2.5 2.5 0 0 1 0 3.53L56 79.854V103c0 6.627-5.373 12-12 12H19c-6.627 0-12-5.373-12-12V77.955L1.17 74.58a2.5 2.5 0 0 1-.914-3.411l.002-.004a2.492 2.492 0 0 1 3.409-.913l3.013 1.744c.11.064.218.132.321.203L7 12C7 5.373 12.373 0 19 0h25z" id="a"/>
    </defs>
    <g transform="translate(1 3)" fill="none" fill-rule="evenodd">
        <mask id="b" fill="#fff">
            <use xlink:href="#a"/>
        </mask>
        <use fill="#5879C8" xlink:href="#a"/>
        <path d="M10 14v63c5.406-15.663 7.68-28.877 6.824-39.641C15.968 26.594 13.694 18.809 10 14z" fill="#424A55" mask="url(#b)"/>
        <path d="M46 15v62c5.406-15.415 7.68-28.419 6.824-39.012C51.968 27.394 49.694 19.732 46 15z" fill="#424A55" mask="url(#b)" transform="matrix(-1 0 0 1 99 0)"/>
        <path d="m17.153 64.062-2.953 9.4c-.663 2.092.321 3.415 2.953 3.968 3.948.831 17.214 3.073 29.966 0 2.166-.59 3.11-1.78 2.834-3.57-.277-1.79-1.04-4.346-2.29-7.667-.851-2.8-2.208-3.758-4.071-2.875-1.864.883-5.728 1.324-11.592 1.324-5.668.08-9.465-.28-11.39-1.08-1.927-.801-3.079-.634-3.457.5z" fill="#424A55" mask="url(#b)"/>
        <g mask="url(#b)" fill="#FFD247">
            <g transform="translate(13 110)">
                <circle cx="3.5" cy="3.5" r="3.5"/>
                <circle cx="33.5" cy="3.5" r="3.5"/>
            </g>
        </g>
    </g>
</svg>

