<svg width="460" height="760" xmlns="http://www.w3.org/2000/svg">
    <defs>
        <linearGradient x1="50%" y1="0%" x2="50%" y2="99.318%" id="a">
            <stop stop-color="#F9F9F9" offset="0%"/>
            <stop stop-color="#90959B" offset="100%"/>
        </linearGradient>
    </defs>
    <g fill="none" fill-rule="evenodd">
        <path fill="#90959B" d="M139 72h120v674H139z"/>
        <path d="m197.955 72-1.945 529v158" stroke="#FFF" stroke-width="4" stroke-dasharray="20"/>
        <g transform="translate(278.086 5.867)">
            <circle fill="#FF6238" cx="20.28" cy="47.608" r="20"/>
            <circle fill="#FF6238" cx="20.043" cy="20.043" r="20.043"/>
            <path fill="#0B0F16" d="M17.914 57.133h6v42h-6z"/>
        </g>
        <path fill="#8AA1D9" d="M288 219h120v209H288z"/>
        <g fill="#424A55">
            <path d="M320 246h20v20h-20zM320 282h20v20h-20zM356 246h20v20h-20zM356 282h20v20h-20z"/>
        </g>
        <g transform="translate(373.367 332.474)">
            <circle fill="#4766BB" cx="35" cy="35" r="35"/>
            <path fill="#0B0F16" d="M32.633 53.526h6v42h-6z"/>
        </g>
        <path d="M288 417h116c27.614 0 50 22.386 50 50v102H288V417z" fill="#5879C8"/>
        <g fill="#424A55">
            <path d="M308 448h20v20h-20zM344 448h20v20h-20zM308 484h20v20h-20zM344 484h20v20h-20z"/>
        </g>
        <g transform="translate(394 462)">
            <circle fill="#FFD247" cx="21.5" cy="51.5" r="21.5"/>
            <circle fill="#FFD247" cx="21.5" cy="21.5" r="21.5"/>
            <path fill="#0B0F16" d="M20 62h6v45h-6z"/>
        </g>
        <g transform="translate(51 256)">
            <path d="M8 0h80v156H8a8 8 0 0 1-8-8V8a8 8 0 0 1 8-8z" fill="#90959B"/>
            <rect stroke="#FFF" stroke-width="4" x="10" y="11" width="68" height="134" rx="8"/>
            <text font-family="NotoSansTC-Bold, Noto Sans TC" font-size="24" font-weight="bold" fill="#FFF">
                        <tspan x="35.996" y="93">P</tspan>
                    </text>
        </g>
        <g>
            <path fill="#8AA1D9" d="M0 30.399 63 0l63 30.399V167H0z"/>
            <path fill="#424A55" d="M35 53h20v20H35zM35 89h20v20H35zM71 53h20v20H71zM71 89h20v20H71z"/>
        </g>
        <path fill="url(#a)" d="M139 28h120v44H139z"/>
    </g>
</svg>
